<svg version="1.1" xmlns="http://www.w3.org/2000/svg" viewBox="100 885 1850 280">
<path fill="currentColor" d="M 724.259 900.256 C 792.451 890.757 855.447 938.292 865.025 1006.47 C 874.603 1074.65 827.141 1137.7 758.971 1147.36 C 690.69 1157.03 627.513 1109.48 617.919 1041.19 C 608.326 972.893 655.956 909.77 724.259 900.256 z M 745.455 1073.73 C 773.434 1071.5 794.276 1046.96 791.947 1018.99 C 789.618 991.021 765.003 970.267 737.041 972.696 C 709.219 975.114 688.592 999.577 690.91 1027.41 C 693.227 1055.24 717.617 1075.95 745.455 1073.73 z"/>
<path fill="currentColor" d="M 228.148 903.337 C 261.911 898.774 331.791 913.7 344.501 950.498 C 347.259 958.597 346.534 967.477 342.501 975.022 C 332.853 992.949 304.098 997.484 288.519 988.26 C 267.218 975.649 253.286 965.61 226.186 974.391 C 182.177 988.65 180.247 1053.52 222.554 1072.08 C 236.605 1078.26 252.565 1078.46 266.771 1072.65 C 272.61 1070.23 284.133 1062.42 286.715 1056.44 C 284.393 1052.93 250.451 1059.51 238.221 1048.61 C 224.367 1042.07 230.916 1013.68 243.017 1009.52 C 256.537 1004.87 294.085 1006.95 308.506 1007.04 C 321.117 1006.83 337.525 1005.62 347.782 1013.37 C 373.326 1032.67 358.516 1076.24 343.405 1097.23 C 324.567 1123.56 299.622 1137.26 268.004 1142.78 C 198.705 1154.87 130.176 1119.13 117.116 1046.51 C 108.36 997.812 130.161 944.284 174.493 919.928 C 193.283 909.605 206.716 906.502 228.148 903.337 z"/>
<path fill="currentColor" d="M 515.75 989.822 C 514.157 972.452 513.444 939.885 520.38 924.069 C 532.168 897.191 581.78 898.939 590.38 928.261 C 593.691 939.547 591.544 956.859 592.423 968.805 C 592.498 1017.05 592.989 1065.55 591.641 1113.76 C 591.196 1129.7 574.74 1139.62 561.012 1143.02 C 505.454 1144.42 514.953 1094.71 515.233 1055.55 C 499.692 1054.67 476.087 1055.3 460.17 1055.4 C 459.558 1074.87 463.49 1109.04 454.778 1125.92 C 441.288 1152.05 391.32 1147.69 384.888 1117.04 C 382.116 1103.84 382.927 1089.17 382.963 1075.56 L 383.036 1023.1 C 382.953 995.404 382.286 967.538 383.438 939.897 C 384.294 919.352 396.394 908.347 416.104 905.249 C 469.151 900.78 459.988 955.433 460.009 990.118 C 478.383 989.67 497.331 989.86 515.75 989.822 z"/>
<path fill="currentColor" d="M 1560.03 908.201 C 1584.47 907.378 1609.62 908.282 1633.97 907.879 C 1688.84 906.971 1729.33 937.227 1727.26 994.938 C 1725.34 1048.57 1686.27 1078.88 1634.25 1077.2 L 1607.7 1077.01 C 1608.04 1092.1 1610.03 1112.99 1602.52 1126.34 C 1592.24 1144.6 1562.26 1147.23 1545.83 1136.08 C 1538.34 1131.01 1533.24 1123.11 1531.68 1114.2 C 1530.51 1107.42 1530.84 1093.5 1530.84 1086.22 L 1530.87 1041.08 L 1530.67 975.773 C 1530.64 948.606 1524.42 913.499 1560.03 908.201 z M 1607.88 1015.9 C 1621.75 1015.91 1635.22 1018.02 1645.89 1009.16 C 1651.2 1003.01 1651.75 1000.21 1653.62 992.238 C 1651.51 984.476 1651.23 983.875 1647.23 976.61 C 1634.16 967.673 1622.92 967.747 1607.11 968.996 C 1606.94 983.109 1606.96 1001.93 1607.88 1015.9 z"/>
<path fill="currentColor" d="M 965.557 903.31 C 971.056 902.922 976.571 902.81 982.081 902.976 C 1008.88 903.65 1040.66 910.258 1060.14 930.429 C 1079.9 951.501 1068.77 982.975 1039.77 985.148 C 1029.31 986.437 1019.14 984.395 1011.1 977.221 C 1003.17 970.149 974.935 954.404 965.869 964.889 C 949.666 983.627 984.162 991.09 994.583 993.989 C 1027.06 1003.31 1068.97 1012.86 1076.31 1051.96 C 1087.82 1113.28 1041.64 1143.03 986.25 1144.99 C 953.913 1145.38 915.214 1138.76 892.539 1114.1 C 872.888 1091.6 881.526 1059.98 912.894 1055.81 C 943.855 1051.69 952.234 1081.17 977.236 1083.99 C 1002.75 1086.86 1012.45 1061.81 980.665 1053.7 C 943.243 1044.15 892.095 1033.23 885.681 987.263 C 883.051 968.601 887.12 949.582 899.03 934.779 C 915.827 912.726 938.879 907.167 965.557 903.31 z"/>
<path fill="currentColor" d="M 1779.93 908.214 C 1804.9 907.772 1829.88 907.617 1854.85 907.75 C 1872.46 907.74 1908.31 904.232 1920.72 917.293 C 1936.27 933.662 1929.1 968.325 1903.17 970.836 C 1877.6 973.311 1850.63 971.945 1824.8 971.405 L 1824.97 996.167 C 1841.65 995.502 1892.82 992.216 1899.68 1003.53 C 1936.54 1064.36 1839.46 1050.86 1824.69 1051.01 C 1824.97 1058.85 1824.8 1066.88 1824.73 1074.75 L 1838.75 1074.98 C 1858.89 1074.59 1878.69 1074.37 1898.82 1074.4 C 1926.25 1074.44 1940.83 1104.98 1926.5 1126.61 C 1922.29 1132.92 1915.73 1137.27 1908.29 1138.7 C 1895.55 1141.07 1859.03 1139.87 1844.15 1140.09 C 1823.14 1139.61 1801.94 1141.07 1780.99 1139.39 C 1745.82 1136.56 1748.39 1108.38 1748.3 1082.65 L 1748.62 1025.5 C 1748.74 997.878 1748.19 970.142 1749.16 942.563 C 1749.87 922.357 1759.98 911.303 1779.93 908.214 z"/>
<path fill="currentColor" d="M 1333.42 905.376 C 1337.55 905.453 1343.07 905.978 1346.99 907.195 C 1353.71 909.318 1359.7 913.248 1364.33 918.553 C 1373.63 929.091 1396.25 975.14 1403.72 989.656 C 1412.81 971.347 1423.35 953.198 1433.09 935.266 C 1440.43 922.747 1447.27 911.133 1462.14 906.891 C 1489.99 898.943 1519.85 922.252 1508.84 951.751 C 1504.46 963.487 1494.2 977.442 1487.14 988.356 C 1475.52 1006.17 1464.03 1024.07 1452.7 1042.07 C 1450.49 1045.35 1443.68 1055.14 1443.14 1057.96 C 1438.66 1081.49 1449.3 1111.59 1432.55 1131.83 C 1419.91 1146.85 1389.01 1146.53 1375.51 1133.06 C 1358.4 1115.99 1364.88 1080.44 1363.94 1057.27 C 1350.2 1034.85 1335.25 1013.35 1321.32 990.819 C 1308.85 970.639 1282.8 942.846 1302.52 919.096 C 1310.55 909.418 1321.48 906.412 1333.42 905.376 z"/>
<path fill="currentColor" d="M 1113.08 908.258 L 1114.4 908.192 C 1160.29 906.099 1214.98 907.891 1261.35 909.283 C 1281.67 909.893 1292.59 948.914 1275.23 963.648 C 1259.65 976.879 1237.25 973.128 1217.51 973.154 L 1217.39 1101.25 C 1217 1112.82 1216.86 1121.67 1208.48 1131.02 C 1189.83 1151.92 1144.97 1143.84 1141.03 1113.97 C 1138.98 1098.5 1139.84 1080.5 1139.88 1064.73 L 1140.07 973.476 C 1117.91 973.323 1089.76 976.411 1084.84 947.027 C 1083.28 937.608 1085.65 927.96 1091.4 920.337 C 1097.42 912.478 1103.67 909.743 1113.08 908.258 z"/>
</svg>