<svg width="660" height="665" viewBox="0 0 660 665" fill="none" xmlns="http://www.w3.org/2000/svg">
<path d="M438.332 0.22887C455.177 -0.79263 475.682 1.65386 491.822 6.59586C523.992 16.4464 546.137 31.7174 566.162 58.5429C610.912 118.493 607.647 191.069 612.092 261.964C614.132 294.442 617.797 328.777 625.292 360.462C629.862 379.772 639.327 400.527 648.927 417.957C655.702 430.257 662.307 444.182 657.877 458.682C651.867 478.322 625.867 471.657 613.772 483.427C601.212 495.647 599.652 512.272 581.802 520.847C570.072 526.487 560.882 525.967 548.872 522.012C547.557 512.352 544.772 500.907 536.022 495.462C524.662 488.392 509.917 483.767 497.342 479.137C482.447 473.682 467.617 468.062 452.847 462.272C457.197 461.487 462.622 461.312 467.087 461.017C490.902 459.447 518.652 450.142 525.257 424.322C518.712 429.442 515.857 434.652 507.187 440.302C484.312 455.192 460.252 446.702 436.447 456.122C420.167 462.797 408.972 475.627 392.362 481.957C375.967 488.202 359.882 483.152 354.202 465.302C349.747 451.287 354.302 437.572 360.857 424.937C371.877 404.612 386.137 391.182 406.602 380.882C421.292 373.492 444.667 364.952 450.707 348.467C437.557 356.582 427.052 360.837 412.962 366.647C381.302 379.692 363.672 396.202 347.717 426.487C332.757 422.417 314.3 414.842 299.299 409.667C292.287 407.247 278.017 402.387 271.726 399.422C274.139 387.117 277.78 380.962 284.968 371.477L284.801 370.772C282.131 370.267 280.09 371.942 278.089 373.342C265.141 382.377 263.978 401.012 252.744 411.157C248.356 415.122 240.103 414.832 236.581 409.897C236 405.262 241.289 393.912 243.234 389.252C224.538 399.022 221.065 426.462 197.628 427.942C190.539 428.352 183.582 425.892 178.33 421.112C172.691 415.952 169.191 406.457 169.066 398.797C168.479 362.882 190.694 338.657 218.473 319.602C234.297 308.747 250.557 302.017 262.081 286.169C272.737 271.511 272.519 252.433 273.132 235.215L274.097 206.168C276.123 149.018 285.139 97.1349 324.492 53.0159C354.267 19.6399 394.087 2.77487 438.332 0.22887Z" fill="#FEFEFE"/>
<path d="M412.667 150.601C429.317 149.797 436.602 164.701 439.912 178.71C444.252 197.105 442.432 232.873 419.177 237.796C382.067 239.139 379.487 160.073 412.667 150.601Z" fill="black"/>
<path d="M330.136 138.578C358.031 139.591 357.181 220.218 330.636 224.799C300.394 221.707 303.616 145.34 330.136 138.578Z" fill="black"/>
<path d="M146.644 369.672C151.8 368.907 157.276 369.922 162.283 371.052C159.559 380.622 158.739 385.962 158.035 395.652C153.779 394.147 138.43 387.137 135.126 388.727C132.139 395.487 143.043 397.392 147.319 399.032C150.939 400.417 154.899 401.617 158.592 402.862C159.171 406.092 159.665 408.167 160.554 411.327C155.488 413.617 150.584 416.512 145.251 418.077C138.797 416.497 102.563 402.272 100.621 402.722C99.8644 402.897 99.8039 403.382 99.4364 403.992C99.3764 405.587 99.4199 407.597 100.517 408.897C102.408 411.132 140.309 424.407 145.21 425.407C151.807 426.752 157.059 421.097 162.201 417.682C164.14 420.867 166.11 423.542 168.304 426.567C165.439 425.607 162.209 424.307 159.263 424.062C147.725 432.292 189.212 436.347 190.755 443.112C191.067 444.482 209.687 450.957 212.007 450.647C215.74 450.922 234.558 441.697 236.242 438.822C242.998 427.287 213.19 442.637 211.507 443.107C206.607 442.092 203.546 440.507 199.02 438.392C213.052 436.382 220.239 430.712 229.292 420.147C249.119 426.477 254.294 424.882 268.311 409.617C293.103 418.337 319.072 426.992 343.636 436.032C340.626 446.072 340.816 451.827 342.041 462.077C331.156 458.822 260.787 431.042 257.1 431.207C255.766 431.267 255.371 431.532 254.55 432.537C254.41 434.957 256.331 437.067 258.446 437.992C269.196 442.677 280.366 446.502 291.397 450.487L344.071 469.837C344.446 470.727 344.831 471.607 345.236 472.482C350.641 484.407 356.801 489.367 368.686 493.872C350.246 503.607 346.496 491.532 333.806 490.777C331.401 492.152 331.026 494.062 332.236 496.597C335.871 499.422 350.616 504.322 355.556 505.532C363.026 508.352 373.366 496.692 378.206 496.042C397.461 493.452 406.461 488.092 422.571 476.782C426.641 473.842 431.866 470.107 436.231 467.822C441.676 469.342 450.406 473.017 456.096 475.102C469.111 479.772 482.096 484.532 495.051 489.372C506.141 493.517 517.816 496.992 528.461 502.112C532.281 503.952 535.196 509.497 536.186 513.462C538.741 523.727 538.116 538.227 528.411 544.692C521.691 549.207 514.636 553.197 507.626 557.237C499.041 562.187 490.496 567.202 481.991 572.287L439.616 597.437C419.761 609.202 392.691 628.987 368.566 620.712C359.996 617.767 350.901 613.812 342.411 610.422C323.346 602.802 304.328 595.067 285.356 587.222L129.449 523.732L43.3464 488.467C31.8904 483.712 19.6409 479.027 8.6029 473.402C3.8469 470.737 1.8739 465.227 1.0764 460.212C-0.8916 447.837 -1.52911 434.832 11.6059 428.497C24.2304 422.407 37.0944 417.077 49.8109 411.262C67.3254 403.182 84.8819 395.192 102.478 387.287C114.582 381.807 134.613 371.547 146.644 369.672Z" fill="#FEFEFE"/>
<path d="M116.618 475.362C121.596 475.237 143.631 485.077 149.83 487.597C176.561 498.392 203.358 509.022 230.22 519.487L258.948 530.857C274.723 537.197 285.468 544.852 300.535 533.207C304.103 530.452 309.304 526.092 313.989 528.242C316.149 531.002 314.838 533.162 312.776 535.552C308.718 538.647 300.627 543.017 296.082 545.687C289.252 549.692 283.486 549.852 276.207 547.332C266.945 544.127 257.637 540.272 248.469 536.642L198.988 517.037L144.144 495.012C136.261 491.817 128.33 488.722 120.464 485.497C115.362 483.407 114.881 480.012 116.618 475.362Z" fill="black"/>
<path d="M359.231 533.517C365.056 534.262 373.321 538.212 379.251 540.407C391.976 545.112 404.506 550.142 417.261 554.822C429.231 559.217 433.286 552.982 443.531 548.237C445.916 547.132 448.086 546.062 450.676 546.937C452.791 549.407 451.871 551.192 450.051 553.412C446.521 555.982 430.801 564.807 426.966 564.777C415.206 564.682 394.431 554.447 383.256 550.407C376.871 548.097 363.066 543.247 358.981 540.297C357.636 537.812 358.436 536.192 359.231 533.517Z" fill="black"/>
<path d="M347.027 564.987C361.037 567.652 373.877 579.242 388.582 576.972C395.862 575.847 409.737 564.902 414.507 567.917C415.687 571.542 415.096 573.077 412.231 575.292C406.826 578.347 395.477 585.422 389.012 586.642C377.137 588.887 358.301 578.642 347.366 573.772C343.476 572.037 344.257 567.802 347.027 564.987Z" fill="black"/>
<path d="M409.022 518.002C413.542 518.527 418.397 520.842 422.742 522.467C432.977 526.292 443.177 530.767 453.392 534.582C462.812 538.097 468.827 532.917 476.812 528.917C478.877 527.882 481.521 526.392 483.786 527.157C485.791 529.527 485.047 531.842 483.372 534.152C478.782 537.552 464.352 545.397 458.567 543.862C441.967 539.452 424.842 531.402 408.707 525.212C406.087 524.207 407.957 519.752 409.022 518.002Z" fill="black"/>
<path d="M64.1614 420.607C73.1134 421.947 94.6599 432.202 103.995 435.417C108.001 436.792 113.709 439.827 118.252 440.212C127.56 440.997 136.64 430.752 145.458 429.877C146.673 429.757 147.182 430.802 147.644 431.607C147.752 433.887 147.738 433.777 146.946 435.942C142.105 439.282 127.652 447.547 121.84 448.047C117.208 448.452 103.425 442.842 98.9869 440.847C87.6229 435.737 75.0669 432.312 64.2419 426.392C63.3009 425.877 64.0449 421.407 64.1614 420.607Z" fill="black"/>
<path d="M355.186 544.467C359.741 544.117 361.146 547.592 359.856 550.322C357.951 554.352 344.466 560.917 340.811 563.252C329.496 570.482 314.728 562.007 303.683 557.312C300.063 555.937 296.267 552.507 297.578 549.602C300.268 543.647 320.571 554.632 324.081 555.702C337.456 559.777 343.816 550.272 354.441 544.847L355.186 544.467Z" fill="black"/>
<path d="M23.8349 439.317C35.2224 442.542 46.7954 449.657 58.5179 451.507C67.7874 452.972 81.7244 440.282 89.0309 441.717C91.4219 443.917 90.7334 446.132 89.0479 448.542C88.4064 448.897 87.7614 449.247 87.1129 449.592C63.8719 461.922 57.4049 462.792 32.8784 451.042C27.3124 448.377 20.8999 447.027 23.8349 439.317Z" fill="black"/>
<path d="M130.54 456.447C131.177 456.547 131.579 456.822 132.199 457.117C137.717 465.332 117.385 470.687 111.751 474.282C102.251 480.347 86.0635 471.387 76.53 467.452C73.8915 466.202 72.0405 464.582 72.7665 461.367C79.91 454.207 98.5905 474.787 110.679 465.677C112.635 464.202 127.695 457.567 130.54 456.447Z" fill="black"/>
<path d="M456.067 502.802C464.577 505.612 490.472 518.427 497.587 516.707C503.062 515.377 509.482 510.362 514.942 510.922C517.287 512.867 515.702 515.547 514.152 517.757C509.612 520.602 500.862 525.712 495.797 525.457C489.772 525.152 457.847 512.337 455.207 509.627C454.277 506.807 454.902 505.572 456.067 502.802Z" fill="black"/>
<path d="M365.732 514.427C367.747 514.367 368.377 514.847 369.907 515.937C372.507 523.277 353.987 530.752 348.867 533.842C343.632 537.007 327.607 529.447 321.857 527.112C319.969 526.157 319.091 525.877 317.674 524.372C312.075 511.372 338.077 524.987 342.882 526.092L343.637 526.262C351.122 524.092 358.432 518.387 365.732 514.427Z" fill="black"/>
<path d="M328.366 499.437C330.116 499.557 331.331 500.077 332.416 501.502C333.846 507.552 315.795 515.722 311.181 518.487C304.193 522.677 289.26 515.382 281.99 512.587C278.747 511.172 278.106 509.927 277.896 506.417C281.022 499.597 298.198 513.182 304.726 511.587C313.431 509.457 319.694 503.467 327.721 499.732L328.366 499.437Z" fill="black"/>
<path d="M290.168 485.517C291.907 485.812 292.558 485.942 293.678 487.202C294.708 491.197 291.302 494.022 287.93 495.757C283.427 497.862 273.057 504.612 268.314 504.627C263.385 504.642 250.143 499.107 244.998 497.237C241.231 495.822 240.679 494.787 240.04 490.827C241.986 485.872 254.164 492.577 258 494.297C271.486 500.342 276.599 491.252 289.51 485.792L290.168 485.517Z" fill="black"/>
<path d="M252.386 471.937C254.189 472.302 254.561 472.762 255.375 474.192C255.407 475.032 255.467 475.932 255.051 476.692C252.842 480.717 234.664 489.707 230.765 490.787C225.273 489.792 211.683 484.352 206.139 482.007C203.572 480.387 202.471 478.337 203.786 475.257C209.046 471.772 222.074 482.642 228.54 482.227C237.286 481.662 244.142 474.747 252.386 471.937Z" fill="black"/>
<path d="M418.256 501.427C427.316 507.302 404.366 518.157 400.741 519.857C394.141 522.947 378.296 515.252 372.226 512.342C369.276 510.542 368.446 508.107 370.541 505.172C373.826 504.002 388.921 511.682 396.461 512.807L397.181 512.912C402.806 510.602 412.421 504.662 418.256 501.427Z" fill="black"/>
<path d="M215.773 456.937C217.609 456.922 218.601 457.492 219.649 458.937C220.094 465.337 204.121 470.577 199.081 473.777C191.645 478.492 179.273 471.472 171.699 468.517C168.462 467.262 167.692 466.297 167.125 462.957C170.349 455.692 186.501 469.397 193.006 467.547C201.106 465.242 208.064 460.447 215.773 456.937Z" fill="black"/>
<path d="M270.202 447.097L272.052 447.712C274.851 452.217 267.229 456.112 264.139 457.797C261.235 459.387 251.116 464.922 248.018 464.707C241.794 464.272 230.849 459.417 224.822 457.067C224.015 456.592 222.248 455.397 222 454.407C219.387 445.012 234.184 452.697 237.544 453.972C244.905 456.767 247.458 458.147 254.824 454.132C259.421 451.627 264.933 448.052 270.202 447.097Z" fill="black"/>
<path d="M305.818 460.457C306.935 460.392 306.858 460.452 307.988 460.642L308.715 461.857C308.807 462.727 308.917 463.547 308.521 464.367C306.138 469.297 289.171 477.727 284.346 479.407C278.02 478.037 268.098 473.762 262.057 471.027C261.363 470.682 260.605 470.102 259.963 469.662C258.794 467.392 258.028 465.287 260.337 463.572C267.926 461.992 280.022 476.177 290.708 467.757C292.605 466.262 303.129 461.537 305.818 460.457Z" fill="black"/>
<path d="M180.41 442.907C181.944 443.087 181.268 442.807 182.478 443.852C182.973 445.092 183.587 446.562 182.993 447.857C181.325 451.502 166.913 458.027 163.675 459.882C156.214 464.162 144.354 457.947 136.593 454.657C133.261 453.272 133.036 452.342 132.63 448.977C135.66 442.262 151.092 455.617 157.998 453.502C166.156 450.997 172.607 446.402 180.41 442.907Z" fill="black"/>
<path d="M465.132 488.017C471.517 495.002 448.837 504.042 444.272 505.847C436.487 505.167 424.947 500.277 417.692 496.992C415.617 495.527 415.577 493.472 416.177 491.247C416.757 490.667 417.012 490.142 417.682 490.187C423.827 490.582 434.997 496.627 440.757 497.252C446.707 497.897 458.167 490.462 465.132 488.017Z" fill="black"/>
<path d="M341.406 474.887C342.861 475.582 342.186 475.152 343.211 476.727C344.071 483.782 331.261 488.267 325.946 491.422C319.602 495.192 303.16 486.707 296.536 484.057C293.74 482.632 293.938 479.122 296.115 477.437C301.545 476.807 313.213 483.037 319.994 484.777L320.691 484.952C326.116 483.237 335.176 477.602 341.406 474.887Z" fill="black"/>
<path d="M77.3279 658.927C77.4359 659.222 77.6549 660.887 77.7174 661.307C76.8284 663.717 75.9649 664.947 73.3469 664.507C73.4714 663.847 73.6144 663.707 73.9144 663.087C75.6539 662.767 76.0364 662.787 76.5184 661.187L75.2779 660.187L75.5369 659.607L77.3279 658.927Z" fill="black" fill-opacity="0.0156863"/>
</svg>
