<svg width="729" height="100" viewBox="0 0 729 100" fill="none" xmlns="http://www.w3.org/2000/svg">
<path d="M45.2547 1.71878C58.7836 -0.109628 86.7848 5.87128 91.8777 20.6164C92.9829 23.8617 92.6924 27.4199 91.0763 30.4432C87.2103 37.6266 75.6881 39.4438 69.4456 35.7477C60.9102 30.6945 55.3276 26.6718 44.4685 30.1904C26.8339 35.904 26.0606 61.8976 43.0131 69.3347C48.6434 71.811 55.0387 71.8912 60.7311 69.5631C63.0708 68.5934 67.6881 65.4639 68.7227 63.0677C67.7922 61.6612 54.1916 64.2979 49.291 59.9302C43.7396 57.3096 46.3638 45.9336 51.2127 44.2667C56.6302 42.4034 71.6759 43.2369 77.4544 43.2729C82.5077 43.1888 89.0824 42.704 93.1925 45.8094C103.428 53.543 97.4936 71.0016 91.4386 79.4124C83.8901 89.9629 73.8946 95.4526 61.2251 97.6645C33.4568 102.509 5.99695 88.1878 0.76376 59.0887C-2.7448 39.5753 5.99094 18.1264 23.7549 8.36686C31.2841 4.23039 36.6668 2.98701 45.2547 1.71878Z" fill="black"/>
<path d="M160.498 36.3737C159.859 29.4134 159.574 16.3637 162.353 10.0262C167.077 -0.743938 186.956 -0.0435014 190.402 11.7059C191.729 16.2283 190.869 23.1653 191.221 27.9521C191.251 47.284 191.448 66.7181 190.908 86.036C190.729 92.4233 184.135 96.3982 178.634 97.7606C156.372 98.3216 160.178 78.4027 160.291 62.7111C154.063 62.3585 144.605 62.6109 138.227 62.651C137.981 70.4527 139.557 84.1447 136.066 90.9086C130.661 101.379 110.638 99.6319 108.061 87.3504C106.95 82.0611 107.275 76.1828 107.29 70.7292L107.319 49.7082C107.286 38.6104 107.018 27.4444 107.48 16.3685C107.823 8.13605 112.671 3.72633 120.569 2.48495C141.825 0.694209 138.154 22.5938 138.162 36.4922C145.525 36.3127 153.117 36.3889 160.498 36.3737Z" fill="black"/>
<path d="M244.048 0.484227C271.373 -3.32206 296.616 15.7254 300.454 43.0445C304.292 70.3645 285.273 95.6289 257.957 99.4997C230.597 103.374 205.282 84.321 201.437 56.957C197.593 29.5901 216.679 4.29652 244.048 0.484227ZM252.541 69.9959C263.753 69.1023 272.104 59.269 271.171 48.0614C270.238 36.8541 260.374 28.5379 249.17 29.5112C238.022 30.4801 229.756 40.2825 230.685 51.4353C231.613 62.5869 241.387 70.8854 252.541 69.9959Z" fill="black"/>
<path d="M667.059 3.67304C677.065 3.49593 687.074 3.43383 697.08 3.48712C704.136 3.48311 718.502 2.07746 723.474 7.31105C729.705 13.8702 726.832 27.7597 716.442 28.7659C706.196 29.7576 695.389 29.2103 685.039 28.9939L685.107 38.9161C691.791 38.6497 712.295 37.333 715.044 41.8665C729.813 66.2413 690.913 60.8318 684.995 60.8919C685.107 64.0334 685.039 67.2511 685.011 70.4046L690.629 70.4968C698.699 70.3405 706.633 70.2524 714.699 70.2644C725.69 70.2804 731.532 82.5179 725.79 91.1851C724.103 93.7135 721.475 95.4566 718.494 96.0296C713.389 96.9793 698.755 96.4984 692.792 96.5866C684.374 96.3942 675.879 96.9793 667.484 96.3061C653.391 95.1721 654.421 83.8803 654.385 73.5702L654.513 50.67C654.561 39.6017 654.341 28.4878 654.73 17.4368C655.014 9.34019 659.065 4.91082 667.059 3.67304Z" fill="black"/>
<path d="M578.945 3.66781C588.738 3.33804 598.815 3.70029 608.573 3.5388C630.559 3.17496 646.784 15.2986 645.954 38.4236C645.185 59.9142 629.529 72.0595 608.685 71.3863L598.046 71.3102C598.182 77.3568 598.98 85.7275 595.97 91.0769C591.851 98.3937 579.838 99.4476 573.255 94.9797C570.253 92.9482 568.21 89.7826 567.585 86.2123C567.116 83.4956 567.248 77.9178 567.248 75.0007L567.26 56.9129L567.18 30.7442C567.168 19.8582 564.675 5.79074 578.945 3.66781ZM598.118 46.8232C603.676 46.8272 609.073 47.6727 613.349 44.1224C615.477 41.6581 615.697 40.5361 616.446 37.3417C615.601 34.2315 615.489 33.9907 613.886 31.0795C608.649 27.4985 604.145 27.5281 597.81 28.0286C597.742 33.6837 597.75 41.2254 598.118 46.8232Z" fill="black"/>
<path d="M340.737 1.70798C342.941 1.55251 345.15 1.50764 347.358 1.57415C358.097 1.84423 370.831 4.49208 378.637 12.5747C386.555 21.0183 382.095 33.63 370.474 34.5008C366.283 35.0173 362.208 34.199 358.986 31.3244C355.809 28.4906 344.495 22.1815 340.862 26.3829C334.369 33.8913 348.192 36.8817 352.368 38.0434C365.382 41.7783 382.175 45.605 385.116 61.2726C389.728 85.8437 371.224 97.7646 349.029 98.55C336.071 98.7063 320.564 96.0536 311.478 86.1723C303.604 77.1564 307.066 64.4862 319.635 62.8153C332.041 61.1644 335.399 72.9771 345.417 74.1071C355.64 75.2571 359.527 65.2195 346.791 61.9698C331.796 58.1431 311.301 53.7674 308.73 35.3483C307.677 27.8703 309.307 20.2493 314.079 14.3177C320.81 5.481 330.047 3.2535 340.737 1.70798Z" fill="black"/>
<path d="M488.141 2.53582C489.796 2.56668 492.008 2.77706 493.579 3.26472C496.271 4.11541 498.672 5.69016 500.527 7.8159C504.253 12.0385 513.317 30.4905 516.311 36.3071C519.953 28.9707 524.176 21.6983 528.079 14.5129C531.02 9.49645 533.761 4.84268 539.72 3.1429C550.879 -0.0418955 562.844 9.2981 558.432 21.1185C556.677 25.8211 552.566 31.4129 549.737 35.7862C545.081 42.9244 540.477 50.0969 535.937 57.3096C535.051 58.6239 532.323 62.5468 532.106 63.6768C530.311 73.1053 534.575 85.1665 527.863 93.2767C522.798 99.2953 510.416 99.1671 505.007 93.7697C498.151 86.9296 500.747 72.6846 500.371 63.4003C494.865 54.4165 488.874 45.8014 483.293 36.7731C478.296 28.6869 467.857 17.5502 475.759 8.03349C478.977 4.15548 483.357 2.95095 488.141 2.53582Z" fill="black"/>
<path d="M399.85 3.69067L400.379 3.66423C418.767 2.82556 440.682 3.54362 459.262 4.1014C467.405 4.34583 471.78 19.9817 464.824 25.8856C458.581 31.1874 449.605 29.6843 441.696 29.6947L441.647 81.0232C441.491 85.6594 441.435 89.2056 438.077 92.9522C430.604 101.327 412.629 98.0892 411.05 86.1202C410.228 79.9213 410.573 72.7086 410.589 66.3895L410.665 29.8238C401.785 29.7625 390.506 30.9998 388.534 19.2255C387.909 15.4513 388.859 11.5853 391.163 8.53076C393.575 5.38163 396.079 4.28571 399.85 3.69067Z" fill="black"/>
</svg>
