<svg width="117" height="16" viewBox="0 0 117 16" fill="none" xmlns="http://www.w3.org/2000/svg">
<path d="M7.24075 0.275005C9.40538 -0.0175405 13.8856 0.939404 14.7004 3.29862C14.8773 3.81787 14.8308 4.38719 14.5722 4.87091C13.9537 6.02026 12.1101 6.31101 11.1113 5.71964C9.74563 4.91112 8.85241 4.26749 7.11496 4.83046C4.29343 5.74464 4.16969 9.90362 6.8821 11.0936C7.78295 11.4898 8.80618 11.5026 9.71697 11.1301C10.0913 10.9749 10.8301 10.4742 10.9956 10.0908C10.8468 9.86579 8.67065 10.2877 7.88655 9.58883C6.99834 9.16953 7.41821 7.34938 8.19404 7.08267C9.06084 6.78455 11.4681 6.9179 12.3927 6.92367C13.2012 6.91021 14.2532 6.83263 14.9108 7.3295C16.5485 8.56688 15.599 11.3603 14.6302 12.706C13.4224 14.3941 11.8231 15.2724 9.79602 15.6263C5.35308 16.4014 0.959512 14.1101 0.122202 9.4542C-0.439168 6.33204 0.95855 2.90022 3.80079 1.3387C5.00546 0.676863 5.86669 0.477921 7.24075 0.275005Z" fill="black"/>
<path d="M25.6797 5.81979C25.5775 4.70616 25.5318 2.6182 25.9765 1.6042C26.7323 -0.119021 29.913 -0.00695166 30.4644 1.87296C30.6767 2.59653 30.539 3.70645 30.5954 4.47234C30.6002 7.56545 30.6316 10.6749 30.5452 13.7658C30.5167 14.7877 29.4617 15.4237 28.5815 15.6417C25.0196 15.7315 25.6286 12.5444 25.6465 10.0338C24.6501 9.97737 23.1368 10.0178 22.1163 10.0242C22.077 11.2724 22.3291 13.4632 21.7706 14.5454C20.9057 16.2206 17.7021 15.9411 17.2898 13.9761C17.112 13.1298 17.164 12.1893 17.1663 11.3167L17.171 7.95333C17.1657 6.17767 17.1229 4.39111 17.1968 2.61897C17.2517 1.30178 18.0274 0.596222 19.2911 0.397601C22.6921 0.111082 22.1046 3.61502 22.106 5.83877C23.284 5.81005 24.4988 5.82223 25.6797 5.81979Z" fill="black"/>
<path d="M39.0477 0.0774764C43.4197 -0.531529 47.4585 2.51606 48.0726 6.88713C48.6866 11.2583 45.6437 15.3006 41.2732 15.9199C36.8955 16.5399 32.8451 13.4914 32.23 9.11311C31.6149 4.73442 34.6686 0.687443 39.0477 0.0774764ZM40.4066 11.1993C42.2004 11.0564 43.5367 9.48305 43.3874 7.68982C43.238 5.89665 41.6599 4.56606 39.8672 4.72179C38.0834 4.87682 36.761 6.4452 36.9096 8.22965C37.0582 10.0139 38.6219 11.3417 40.4066 11.1993Z" fill="black"/>
<path d="M106.729 0.587676C108.33 0.559338 109.932 0.549401 111.533 0.557928C112.662 0.557287 114.96 0.332382 115.756 1.16976C116.753 2.21922 116.293 4.44155 114.631 4.60253C112.991 4.76121 111.262 4.67364 109.606 4.63902L109.617 6.22657C110.687 6.18393 113.967 5.97326 114.407 6.69863C116.77 10.5986 110.546 9.73308 109.599 9.7427C109.617 10.2453 109.606 10.7602 109.602 11.2647L110.501 11.2795C111.792 11.2545 113.061 11.2404 114.352 11.2423C116.11 11.2449 117.045 13.2029 116.126 14.5896C115.857 14.9942 115.436 15.273 114.959 15.3647C114.142 15.5167 111.801 15.4397 110.847 15.4538C109.5 15.4231 108.141 15.5167 106.797 15.409C104.543 15.2275 104.707 13.4208 104.702 11.7712L104.722 8.10718C104.73 6.33627 104.695 4.55804 104.757 2.78988C104.802 1.49442 105.45 0.78572 106.729 0.587676Z" fill="black"/>
<path d="M92.6311 0.586848C94.198 0.534083 95.8105 0.592043 97.3716 0.566206C100.889 0.507992 103.485 2.44778 103.353 6.14778C103.23 9.58627 100.725 11.5295 97.3896 11.4218L95.6874 11.4096C95.7092 12.3771 95.8368 13.7164 95.3553 14.5723C94.6962 15.743 92.7741 15.9116 91.7207 15.1968C91.2405 14.8717 90.9136 14.3652 90.8135 13.794C90.7385 13.3593 90.7597 12.4668 90.7597 12.0001L90.7616 9.10606L90.7488 4.91906C90.7469 3.17732 90.3481 0.926516 92.6311 0.586848ZM95.6989 7.49171C96.5882 7.49235 97.4517 7.62763 98.1358 7.05959C98.4763 6.6653 98.5115 6.48578 98.6314 5.97468C98.4961 5.47703 98.4782 5.4385 98.2217 4.97272C97.3838 4.39975 96.6632 4.40449 95.6495 4.48457C95.6386 5.38939 95.6399 6.59606 95.6989 7.49171Z" fill="black"/>
<path d="M54.5179 0.273283C54.8705 0.248408 55.2241 0.241228 55.5773 0.251871C57.2955 0.295083 59.333 0.718739 60.5819 2.01195C61.8488 3.36293 61.1352 5.38081 59.2759 5.52013C58.6053 5.60277 57.9533 5.47185 57.4378 5.01191C56.9294 4.5585 55.1192 3.54905 54.5379 4.22127C53.4991 5.42261 55.7108 5.90109 56.3789 6.08695C58.4611 6.68454 61.148 7.29681 61.6186 9.80362C62.3565 13.735 59.3958 15.6423 55.8446 15.768C53.7714 15.793 51.2903 15.3686 49.8366 13.7876C48.5767 12.345 49.1305 10.3178 51.1416 10.0505C53.1266 9.78631 53.6638 11.6763 55.2667 11.8571C56.9025 12.0411 57.5244 10.4351 55.4865 9.91517C53.0873 9.3029 49.8081 8.60279 49.3969 5.65573C49.2283 4.45926 49.4891 3.2399 50.2527 2.29084C51.3296 0.876967 52.8075 0.520566 54.5179 0.273283Z" fill="black"/>
<path d="M78.1026 0.405732C78.3674 0.410669 78.7213 0.44433 78.9726 0.522355C79.4034 0.658466 79.7874 0.910426 80.0843 1.25054C80.6805 1.92616 82.1308 4.87848 82.6097 5.80914C83.1925 4.6353 83.8682 3.47172 84.4927 2.32206C84.9633 1.51943 85.4018 0.774829 86.3551 0.502863C88.1407 -0.00670323 90.0551 1.4877 89.3492 3.37895C89.0684 4.13138 88.4106 5.02607 87.958 5.7258C87.213 6.8679 86.4763 8.01551 85.7499 9.16953C85.6082 9.37982 85.1716 10.0075 85.137 10.1883C84.8498 11.6969 85.5319 13.6266 84.4581 14.9243C83.6477 15.8872 81.6666 15.8667 80.8011 15.0031C79.7041 13.9087 80.1196 11.6295 80.0593 10.144C79.1784 8.70665 78.2199 7.32822 77.3268 5.8837C76.5273 4.58991 74.8572 2.80803 76.1215 1.28536C76.6363 0.664877 77.3371 0.472153 78.1026 0.405732Z" fill="black"/>
<path d="M63.976 0.590508L64.0606 0.586278C67.0028 0.45209 70.5091 0.56698 73.482 0.656225C74.7847 0.695334 75.4849 3.19707 74.3719 4.1417C73.373 4.98998 71.9369 4.74949 70.6713 4.75116L70.6636 12.9637C70.6386 13.7055 70.6296 14.2729 70.0923 14.8724C68.8966 16.2123 66.0206 15.6943 65.768 13.7792C65.6365 12.7874 65.6917 11.6334 65.6942 10.6223L65.7064 4.7718C64.2857 4.76199 62.4809 4.95997 62.1655 3.07609C62.0654 2.47221 62.2174 1.85365 62.586 1.36492C62.972 0.861062 63.3727 0.685715 63.976 0.590508Z" fill="black"/>
</svg>
